<mxfile host="app.diagrams.net" modified="2021-06-15T19:55:04.762Z" agent="5.0 (Windows NT 10.0; Win64; x64) AppleWebKit/537.36 (KHTML, like Gecko) Chrome/91.0.4472.106 Safari/537.36" etag="sT99PoY1cWphInIbCImq" version="14.7.8" type="github">
  <diagram id="_rKBVMMMxIpNqGGiBoeg" name="Page-1">
    <mxGraphModel dx="1438" dy="889" grid="1" gridSize="10" guides="1" tooltips="1" connect="1" arrows="1" fold="1" page="0" pageScale="1" pageWidth="827" pageHeight="1169" math="0" shadow="0">
      <root>
        <mxCell id="0" />
        <mxCell id="1" parent="0" />
        <mxCell id="2HzZ_DdVNR7TNEQ7cjcN-23" value="Person" style="shape=table;startSize=30;container=1;collapsible=1;childLayout=tableLayout;fixedRows=1;rowLines=0;fontStyle=1;align=center;resizeLast=1;" vertex="1" parent="1">
          <mxGeometry x="-140" y="-15" width="160" height="270" as="geometry" />
        </mxCell>
        <mxCell id="2HzZ_DdVNR7TNEQ7cjcN-24" value="" style="shape=partialRectangle;collapsible=0;dropTarget=0;pointerEvents=0;fillColor=none;top=0;left=0;bottom=1;right=0;points=[[0,0.5],[1,0.5]];portConstraint=eastwest;" vertex="1" parent="2HzZ_DdVNR7TNEQ7cjcN-23">
          <mxGeometry y="30" width="160" height="30" as="geometry" />
        </mxCell>
        <mxCell id="2HzZ_DdVNR7TNEQ7cjcN-25" value="PK" style="shape=partialRectangle;connectable=0;fillColor=none;top=0;left=0;bottom=0;right=0;fontStyle=1;overflow=hidden;" vertex="1" parent="2HzZ_DdVNR7TNEQ7cjcN-24">
          <mxGeometry width="30" height="30" as="geometry" />
        </mxCell>
        <mxCell id="2HzZ_DdVNR7TNEQ7cjcN-26" value="id_person" style="shape=partialRectangle;connectable=0;fillColor=none;top=0;left=0;bottom=0;right=0;align=left;spacingLeft=6;fontStyle=5;overflow=hidden;" vertex="1" parent="2HzZ_DdVNR7TNEQ7cjcN-24">
          <mxGeometry x="30" width="130" height="30" as="geometry" />
        </mxCell>
        <mxCell id="2HzZ_DdVNR7TNEQ7cjcN-27" value="" style="shape=partialRectangle;collapsible=0;dropTarget=0;pointerEvents=0;fillColor=none;top=0;left=0;bottom=0;right=0;points=[[0,0.5],[1,0.5]];portConstraint=eastwest;" vertex="1" parent="2HzZ_DdVNR7TNEQ7cjcN-23">
          <mxGeometry y="60" width="160" height="30" as="geometry" />
        </mxCell>
        <mxCell id="2HzZ_DdVNR7TNEQ7cjcN-28" value="" style="shape=partialRectangle;connectable=0;fillColor=none;top=0;left=0;bottom=0;right=0;editable=1;overflow=hidden;" vertex="1" parent="2HzZ_DdVNR7TNEQ7cjcN-27">
          <mxGeometry width="30" height="30" as="geometry" />
        </mxCell>
        <mxCell id="2HzZ_DdVNR7TNEQ7cjcN-29" value="num_doc" style="shape=partialRectangle;connectable=0;fillColor=none;top=0;left=0;bottom=0;right=0;align=left;spacingLeft=6;overflow=hidden;" vertex="1" parent="2HzZ_DdVNR7TNEQ7cjcN-27">
          <mxGeometry x="30" width="130" height="30" as="geometry" />
        </mxCell>
        <mxCell id="2HzZ_DdVNR7TNEQ7cjcN-30" value="" style="shape=partialRectangle;collapsible=0;dropTarget=0;pointerEvents=0;fillColor=none;top=0;left=0;bottom=0;right=0;points=[[0,0.5],[1,0.5]];portConstraint=eastwest;" vertex="1" parent="2HzZ_DdVNR7TNEQ7cjcN-23">
          <mxGeometry y="90" width="160" height="30" as="geometry" />
        </mxCell>
        <mxCell id="2HzZ_DdVNR7TNEQ7cjcN-31" value="" style="shape=partialRectangle;connectable=0;fillColor=none;top=0;left=0;bottom=0;right=0;editable=1;overflow=hidden;" vertex="1" parent="2HzZ_DdVNR7TNEQ7cjcN-30">
          <mxGeometry width="30" height="30" as="geometry" />
        </mxCell>
        <mxCell id="2HzZ_DdVNR7TNEQ7cjcN-32" value="name" style="shape=partialRectangle;connectable=0;fillColor=none;top=0;left=0;bottom=0;right=0;align=left;spacingLeft=6;overflow=hidden;" vertex="1" parent="2HzZ_DdVNR7TNEQ7cjcN-30">
          <mxGeometry x="30" width="130" height="30" as="geometry" />
        </mxCell>
        <mxCell id="2HzZ_DdVNR7TNEQ7cjcN-33" value="" style="shape=partialRectangle;collapsible=0;dropTarget=0;pointerEvents=0;fillColor=none;top=0;left=0;bottom=0;right=0;points=[[0,0.5],[1,0.5]];portConstraint=eastwest;" vertex="1" parent="2HzZ_DdVNR7TNEQ7cjcN-23">
          <mxGeometry y="120" width="160" height="30" as="geometry" />
        </mxCell>
        <mxCell id="2HzZ_DdVNR7TNEQ7cjcN-34" value="" style="shape=partialRectangle;connectable=0;fillColor=none;top=0;left=0;bottom=0;right=0;editable=1;overflow=hidden;" vertex="1" parent="2HzZ_DdVNR7TNEQ7cjcN-33">
          <mxGeometry width="30" height="30" as="geometry" />
        </mxCell>
        <mxCell id="2HzZ_DdVNR7TNEQ7cjcN-35" value="lastname" style="shape=partialRectangle;connectable=0;fillColor=none;top=0;left=0;bottom=0;right=0;align=left;spacingLeft=6;overflow=hidden;" vertex="1" parent="2HzZ_DdVNR7TNEQ7cjcN-33">
          <mxGeometry x="30" width="130" height="30" as="geometry" />
        </mxCell>
        <mxCell id="2HzZ_DdVNR7TNEQ7cjcN-58" value="" style="shape=partialRectangle;collapsible=0;dropTarget=0;pointerEvents=0;fillColor=none;top=0;left=0;bottom=0;right=0;points=[[0,0.5],[1,0.5]];portConstraint=eastwest;" vertex="1" parent="2HzZ_DdVNR7TNEQ7cjcN-23">
          <mxGeometry y="150" width="160" height="30" as="geometry" />
        </mxCell>
        <mxCell id="2HzZ_DdVNR7TNEQ7cjcN-59" value="" style="shape=partialRectangle;connectable=0;fillColor=none;top=0;left=0;bottom=0;right=0;editable=1;overflow=hidden;" vertex="1" parent="2HzZ_DdVNR7TNEQ7cjcN-58">
          <mxGeometry width="30" height="30" as="geometry" />
        </mxCell>
        <mxCell id="2HzZ_DdVNR7TNEQ7cjcN-60" value="num_phone" style="shape=partialRectangle;connectable=0;fillColor=none;top=0;left=0;bottom=0;right=0;align=left;spacingLeft=6;overflow=hidden;" vertex="1" parent="2HzZ_DdVNR7TNEQ7cjcN-58">
          <mxGeometry x="30" width="130" height="30" as="geometry" />
        </mxCell>
        <mxCell id="2HzZ_DdVNR7TNEQ7cjcN-61" value="" style="shape=partialRectangle;collapsible=0;dropTarget=0;pointerEvents=0;fillColor=none;top=0;left=0;bottom=0;right=0;points=[[0,0.5],[1,0.5]];portConstraint=eastwest;" vertex="1" parent="2HzZ_DdVNR7TNEQ7cjcN-23">
          <mxGeometry y="180" width="160" height="30" as="geometry" />
        </mxCell>
        <mxCell id="2HzZ_DdVNR7TNEQ7cjcN-62" value="" style="shape=partialRectangle;connectable=0;fillColor=none;top=0;left=0;bottom=0;right=0;editable=1;overflow=hidden;" vertex="1" parent="2HzZ_DdVNR7TNEQ7cjcN-61">
          <mxGeometry width="30" height="30" as="geometry" />
        </mxCell>
        <mxCell id="2HzZ_DdVNR7TNEQ7cjcN-63" value="address" style="shape=partialRectangle;connectable=0;fillColor=none;top=0;left=0;bottom=0;right=0;align=left;spacingLeft=6;overflow=hidden;" vertex="1" parent="2HzZ_DdVNR7TNEQ7cjcN-61">
          <mxGeometry x="30" width="130" height="30" as="geometry" />
        </mxCell>
        <mxCell id="2HzZ_DdVNR7TNEQ7cjcN-64" value="" style="shape=partialRectangle;collapsible=0;dropTarget=0;pointerEvents=0;fillColor=none;top=0;left=0;bottom=0;right=0;points=[[0,0.5],[1,0.5]];portConstraint=eastwest;" vertex="1" parent="2HzZ_DdVNR7TNEQ7cjcN-23">
          <mxGeometry y="210" width="160" height="30" as="geometry" />
        </mxCell>
        <mxCell id="2HzZ_DdVNR7TNEQ7cjcN-65" value="" style="shape=partialRectangle;connectable=0;fillColor=none;top=0;left=0;bottom=0;right=0;editable=1;overflow=hidden;" vertex="1" parent="2HzZ_DdVNR7TNEQ7cjcN-64">
          <mxGeometry width="30" height="30" as="geometry" />
        </mxCell>
        <mxCell id="2HzZ_DdVNR7TNEQ7cjcN-66" value="type_person" style="shape=partialRectangle;connectable=0;fillColor=none;top=0;left=0;bottom=0;right=0;align=left;spacingLeft=6;overflow=hidden;" vertex="1" parent="2HzZ_DdVNR7TNEQ7cjcN-64">
          <mxGeometry x="30" width="130" height="30" as="geometry" />
        </mxCell>
        <mxCell id="2HzZ_DdVNR7TNEQ7cjcN-93" value="" style="shape=partialRectangle;collapsible=0;dropTarget=0;pointerEvents=0;fillColor=none;top=0;left=0;bottom=0;right=0;points=[[0,0.5],[1,0.5]];portConstraint=eastwest;" vertex="1" parent="2HzZ_DdVNR7TNEQ7cjcN-23">
          <mxGeometry y="240" width="160" height="30" as="geometry" />
        </mxCell>
        <mxCell id="2HzZ_DdVNR7TNEQ7cjcN-94" value="" style="shape=partialRectangle;connectable=0;fillColor=none;top=0;left=0;bottom=0;right=0;editable=1;overflow=hidden;" vertex="1" parent="2HzZ_DdVNR7TNEQ7cjcN-93">
          <mxGeometry width="30" height="30" as="geometry" />
        </mxCell>
        <mxCell id="2HzZ_DdVNR7TNEQ7cjcN-95" value="name_social" style="shape=partialRectangle;connectable=0;fillColor=none;top=0;left=0;bottom=0;right=0;align=left;spacingLeft=6;overflow=hidden;" vertex="1" parent="2HzZ_DdVNR7TNEQ7cjcN-93">
          <mxGeometry x="30" width="130" height="30" as="geometry" />
        </mxCell>
        <mxCell id="2HzZ_DdVNR7TNEQ7cjcN-36" value="Product" style="shape=table;startSize=30;container=1;collapsible=1;childLayout=tableLayout;fixedRows=1;rowLines=0;fontStyle=1;align=center;resizeLast=1;" vertex="1" parent="1">
          <mxGeometry x="570" y="-15" width="180" height="240" as="geometry" />
        </mxCell>
        <mxCell id="2HzZ_DdVNR7TNEQ7cjcN-37" value="" style="shape=partialRectangle;collapsible=0;dropTarget=0;pointerEvents=0;fillColor=none;top=0;left=0;bottom=1;right=0;points=[[0,0.5],[1,0.5]];portConstraint=eastwest;" vertex="1" parent="2HzZ_DdVNR7TNEQ7cjcN-36">
          <mxGeometry y="30" width="180" height="30" as="geometry" />
        </mxCell>
        <mxCell id="2HzZ_DdVNR7TNEQ7cjcN-38" value="PK" style="shape=partialRectangle;connectable=0;fillColor=none;top=0;left=0;bottom=0;right=0;fontStyle=1;overflow=hidden;" vertex="1" parent="2HzZ_DdVNR7TNEQ7cjcN-37">
          <mxGeometry width="30" height="30" as="geometry" />
        </mxCell>
        <mxCell id="2HzZ_DdVNR7TNEQ7cjcN-39" value="id_product" style="shape=partialRectangle;connectable=0;fillColor=none;top=0;left=0;bottom=0;right=0;align=left;spacingLeft=6;fontStyle=5;overflow=hidden;" vertex="1" parent="2HzZ_DdVNR7TNEQ7cjcN-37">
          <mxGeometry x="30" width="150" height="30" as="geometry" />
        </mxCell>
        <mxCell id="2HzZ_DdVNR7TNEQ7cjcN-40" value="" style="shape=partialRectangle;collapsible=0;dropTarget=0;pointerEvents=0;fillColor=none;top=0;left=0;bottom=0;right=0;points=[[0,0.5],[1,0.5]];portConstraint=eastwest;" vertex="1" parent="2HzZ_DdVNR7TNEQ7cjcN-36">
          <mxGeometry y="60" width="180" height="30" as="geometry" />
        </mxCell>
        <mxCell id="2HzZ_DdVNR7TNEQ7cjcN-41" value="" style="shape=partialRectangle;connectable=0;fillColor=none;top=0;left=0;bottom=0;right=0;editable=1;overflow=hidden;" vertex="1" parent="2HzZ_DdVNR7TNEQ7cjcN-40">
          <mxGeometry width="30" height="30" as="geometry" />
        </mxCell>
        <mxCell id="2HzZ_DdVNR7TNEQ7cjcN-42" value="name_prodcut" style="shape=partialRectangle;connectable=0;fillColor=none;top=0;left=0;bottom=0;right=0;align=left;spacingLeft=6;overflow=hidden;" vertex="1" parent="2HzZ_DdVNR7TNEQ7cjcN-40">
          <mxGeometry x="30" width="150" height="30" as="geometry" />
        </mxCell>
        <mxCell id="2HzZ_DdVNR7TNEQ7cjcN-43" value="" style="shape=partialRectangle;collapsible=0;dropTarget=0;pointerEvents=0;fillColor=none;top=0;left=0;bottom=0;right=0;points=[[0,0.5],[1,0.5]];portConstraint=eastwest;" vertex="1" parent="2HzZ_DdVNR7TNEQ7cjcN-36">
          <mxGeometry y="90" width="180" height="30" as="geometry" />
        </mxCell>
        <mxCell id="2HzZ_DdVNR7TNEQ7cjcN-44" value="" style="shape=partialRectangle;connectable=0;fillColor=none;top=0;left=0;bottom=0;right=0;editable=1;overflow=hidden;" vertex="1" parent="2HzZ_DdVNR7TNEQ7cjcN-43">
          <mxGeometry width="30" height="30" as="geometry" />
        </mxCell>
        <mxCell id="2HzZ_DdVNR7TNEQ7cjcN-45" value="type_product" style="shape=partialRectangle;connectable=0;fillColor=none;top=0;left=0;bottom=0;right=0;align=left;spacingLeft=6;overflow=hidden;" vertex="1" parent="2HzZ_DdVNR7TNEQ7cjcN-43">
          <mxGeometry x="30" width="150" height="30" as="geometry" />
        </mxCell>
        <mxCell id="2HzZ_DdVNR7TNEQ7cjcN-46" value="" style="shape=partialRectangle;collapsible=0;dropTarget=0;pointerEvents=0;fillColor=none;top=0;left=0;bottom=0;right=0;points=[[0,0.5],[1,0.5]];portConstraint=eastwest;" vertex="1" parent="2HzZ_DdVNR7TNEQ7cjcN-36">
          <mxGeometry y="120" width="180" height="30" as="geometry" />
        </mxCell>
        <mxCell id="2HzZ_DdVNR7TNEQ7cjcN-47" value="" style="shape=partialRectangle;connectable=0;fillColor=none;top=0;left=0;bottom=0;right=0;editable=1;overflow=hidden;" vertex="1" parent="2HzZ_DdVNR7TNEQ7cjcN-46">
          <mxGeometry width="30" height="30" as="geometry" />
        </mxCell>
        <mxCell id="2HzZ_DdVNR7TNEQ7cjcN-48" value="description" style="shape=partialRectangle;connectable=0;fillColor=none;top=0;left=0;bottom=0;right=0;align=left;spacingLeft=6;overflow=hidden;" vertex="1" parent="2HzZ_DdVNR7TNEQ7cjcN-46">
          <mxGeometry x="30" width="150" height="30" as="geometry" />
        </mxCell>
        <mxCell id="2HzZ_DdVNR7TNEQ7cjcN-49" value="" style="shape=partialRectangle;collapsible=0;dropTarget=0;pointerEvents=0;fillColor=none;top=0;left=0;bottom=0;right=0;points=[[0,0.5],[1,0.5]];portConstraint=eastwest;" vertex="1" parent="2HzZ_DdVNR7TNEQ7cjcN-36">
          <mxGeometry y="150" width="180" height="30" as="geometry" />
        </mxCell>
        <mxCell id="2HzZ_DdVNR7TNEQ7cjcN-50" value="" style="shape=partialRectangle;connectable=0;fillColor=none;top=0;left=0;bottom=0;right=0;editable=1;overflow=hidden;" vertex="1" parent="2HzZ_DdVNR7TNEQ7cjcN-49">
          <mxGeometry width="30" height="30" as="geometry" />
        </mxCell>
        <mxCell id="2HzZ_DdVNR7TNEQ7cjcN-51" value="free_commission" style="shape=partialRectangle;connectable=0;fillColor=none;top=0;left=0;bottom=0;right=0;align=left;spacingLeft=6;overflow=hidden;" vertex="1" parent="2HzZ_DdVNR7TNEQ7cjcN-49">
          <mxGeometry x="30" width="150" height="30" as="geometry" />
        </mxCell>
        <mxCell id="2HzZ_DdVNR7TNEQ7cjcN-52" value="" style="shape=partialRectangle;collapsible=0;dropTarget=0;pointerEvents=0;fillColor=none;top=0;left=0;bottom=0;right=0;points=[[0,0.5],[1,0.5]];portConstraint=eastwest;" vertex="1" parent="2HzZ_DdVNR7TNEQ7cjcN-36">
          <mxGeometry y="180" width="180" height="30" as="geometry" />
        </mxCell>
        <mxCell id="2HzZ_DdVNR7TNEQ7cjcN-53" value="" style="shape=partialRectangle;connectable=0;fillColor=none;top=0;left=0;bottom=0;right=0;editable=1;overflow=hidden;" vertex="1" parent="2HzZ_DdVNR7TNEQ7cjcN-52">
          <mxGeometry width="30" height="30" as="geometry" />
        </mxCell>
        <mxCell id="2HzZ_DdVNR7TNEQ7cjcN-54" value="limit_mov" style="shape=partialRectangle;connectable=0;fillColor=none;top=0;left=0;bottom=0;right=0;align=left;spacingLeft=6;overflow=hidden;" vertex="1" parent="2HzZ_DdVNR7TNEQ7cjcN-52">
          <mxGeometry x="30" width="150" height="30" as="geometry" />
        </mxCell>
        <mxCell id="2HzZ_DdVNR7TNEQ7cjcN-55" value="" style="shape=partialRectangle;collapsible=0;dropTarget=0;pointerEvents=0;fillColor=none;top=0;left=0;bottom=0;right=0;points=[[0,0.5],[1,0.5]];portConstraint=eastwest;" vertex="1" parent="2HzZ_DdVNR7TNEQ7cjcN-36">
          <mxGeometry y="210" width="180" height="30" as="geometry" />
        </mxCell>
        <mxCell id="2HzZ_DdVNR7TNEQ7cjcN-56" value="" style="shape=partialRectangle;connectable=0;fillColor=none;top=0;left=0;bottom=0;right=0;editable=1;overflow=hidden;" vertex="1" parent="2HzZ_DdVNR7TNEQ7cjcN-55">
          <mxGeometry width="30" height="30" as="geometry" />
        </mxCell>
        <mxCell id="2HzZ_DdVNR7TNEQ7cjcN-57" value="cant_credit" style="shape=partialRectangle;connectable=0;fillColor=none;top=0;left=0;bottom=0;right=0;align=left;spacingLeft=6;overflow=hidden;" vertex="1" parent="2HzZ_DdVNR7TNEQ7cjcN-55">
          <mxGeometry x="30" width="150" height="30" as="geometry" />
        </mxCell>
        <mxCell id="2HzZ_DdVNR7TNEQ7cjcN-69" value="opening" style="shape=table;startSize=30;container=1;collapsible=1;childLayout=tableLayout;fixedRows=1;rowLines=0;fontStyle=1;align=center;resizeLast=1;" vertex="1" parent="1">
          <mxGeometry x="220" y="10" width="180" height="190" as="geometry" />
        </mxCell>
        <mxCell id="2HzZ_DdVNR7TNEQ7cjcN-73" value="" style="shape=partialRectangle;collapsible=0;dropTarget=0;pointerEvents=0;fillColor=none;top=0;left=0;bottom=1;right=0;points=[[0,0.5],[1,0.5]];portConstraint=eastwest;" vertex="1" parent="2HzZ_DdVNR7TNEQ7cjcN-69">
          <mxGeometry y="30" width="180" height="30" as="geometry" />
        </mxCell>
        <mxCell id="2HzZ_DdVNR7TNEQ7cjcN-74" value="PK" style="shape=partialRectangle;connectable=0;fillColor=none;top=0;left=0;bottom=0;right=0;fontStyle=1;overflow=hidden;" vertex="1" parent="2HzZ_DdVNR7TNEQ7cjcN-73">
          <mxGeometry width="60" height="30" as="geometry" />
        </mxCell>
        <mxCell id="2HzZ_DdVNR7TNEQ7cjcN-75" value="num_open" style="shape=partialRectangle;connectable=0;fillColor=none;top=0;left=0;bottom=0;right=0;align=left;spacingLeft=6;fontStyle=5;overflow=hidden;" vertex="1" parent="2HzZ_DdVNR7TNEQ7cjcN-73">
          <mxGeometry x="60" width="120" height="30" as="geometry" />
        </mxCell>
        <mxCell id="2HzZ_DdVNR7TNEQ7cjcN-70" value="" style="shape=partialRectangle;collapsible=0;dropTarget=0;pointerEvents=0;fillColor=none;top=0;left=0;bottom=0;right=0;points=[[0,0.5],[1,0.5]];portConstraint=eastwest;" vertex="1" parent="2HzZ_DdVNR7TNEQ7cjcN-69">
          <mxGeometry y="60" width="180" height="30" as="geometry" />
        </mxCell>
        <mxCell id="2HzZ_DdVNR7TNEQ7cjcN-71" value="PK,FK1" style="shape=partialRectangle;connectable=0;fillColor=none;top=0;left=0;bottom=0;right=0;fontStyle=1;overflow=hidden;" vertex="1" parent="2HzZ_DdVNR7TNEQ7cjcN-70">
          <mxGeometry width="60" height="30" as="geometry" />
        </mxCell>
        <mxCell id="2HzZ_DdVNR7TNEQ7cjcN-72" value="id_person" style="shape=partialRectangle;connectable=0;fillColor=none;top=0;left=0;bottom=0;right=0;align=left;spacingLeft=6;fontStyle=5;overflow=hidden;" vertex="1" parent="2HzZ_DdVNR7TNEQ7cjcN-70">
          <mxGeometry x="60" width="120" height="30" as="geometry" />
        </mxCell>
        <mxCell id="2HzZ_DdVNR7TNEQ7cjcN-82" value="" style="shape=partialRectangle;collapsible=0;dropTarget=0;pointerEvents=0;fillColor=none;top=0;left=0;bottom=1;right=0;points=[[0,0.5],[1,0.5]];portConstraint=eastwest;" vertex="1" parent="2HzZ_DdVNR7TNEQ7cjcN-69">
          <mxGeometry y="90" width="180" height="30" as="geometry" />
        </mxCell>
        <mxCell id="2HzZ_DdVNR7TNEQ7cjcN-83" value="PK,FK2" style="shape=partialRectangle;connectable=0;fillColor=none;top=0;left=0;bottom=0;right=0;fontStyle=1;overflow=hidden;" vertex="1" parent="2HzZ_DdVNR7TNEQ7cjcN-82">
          <mxGeometry width="60" height="30" as="geometry" />
        </mxCell>
        <mxCell id="2HzZ_DdVNR7TNEQ7cjcN-84" value="id_product" style="shape=partialRectangle;connectable=0;fillColor=none;top=0;left=0;bottom=0;right=0;align=left;spacingLeft=6;fontStyle=5;overflow=hidden;" vertex="1" parent="2HzZ_DdVNR7TNEQ7cjcN-82">
          <mxGeometry x="60" width="120" height="30" as="geometry" />
        </mxCell>
        <mxCell id="2HzZ_DdVNR7TNEQ7cjcN-79" value="" style="shape=partialRectangle;collapsible=0;dropTarget=0;pointerEvents=0;fillColor=none;top=0;left=0;bottom=0;right=0;points=[[0,0.5],[1,0.5]];portConstraint=eastwest;" vertex="1" parent="2HzZ_DdVNR7TNEQ7cjcN-69">
          <mxGeometry y="120" width="180" height="30" as="geometry" />
        </mxCell>
        <mxCell id="2HzZ_DdVNR7TNEQ7cjcN-80" value="" style="shape=partialRectangle;connectable=0;fillColor=none;top=0;left=0;bottom=0;right=0;editable=1;overflow=hidden;" vertex="1" parent="2HzZ_DdVNR7TNEQ7cjcN-79">
          <mxGeometry width="60" height="30" as="geometry" />
        </mxCell>
        <mxCell id="2HzZ_DdVNR7TNEQ7cjcN-81" value="date_open" style="shape=partialRectangle;connectable=0;fillColor=none;top=0;left=0;bottom=0;right=0;align=left;spacingLeft=6;overflow=hidden;" vertex="1" parent="2HzZ_DdVNR7TNEQ7cjcN-79">
          <mxGeometry x="60" width="120" height="30" as="geometry" />
        </mxCell>
        <mxCell id="2HzZ_DdVNR7TNEQ7cjcN-76" value="" style="shape=partialRectangle;collapsible=0;dropTarget=0;pointerEvents=0;fillColor=none;top=0;left=0;bottom=0;right=0;points=[[0,0.5],[1,0.5]];portConstraint=eastwest;" vertex="1" parent="2HzZ_DdVNR7TNEQ7cjcN-69">
          <mxGeometry y="150" width="180" height="30" as="geometry" />
        </mxCell>
        <mxCell id="2HzZ_DdVNR7TNEQ7cjcN-77" value="" style="shape=partialRectangle;connectable=0;fillColor=none;top=0;left=0;bottom=0;right=0;editable=1;overflow=hidden;" vertex="1" parent="2HzZ_DdVNR7TNEQ7cjcN-76">
          <mxGeometry width="60" height="30" as="geometry" />
        </mxCell>
        <mxCell id="2HzZ_DdVNR7TNEQ7cjcN-78" value="" style="shape=partialRectangle;connectable=0;fillColor=none;top=0;left=0;bottom=0;right=0;align=left;spacingLeft=6;overflow=hidden;" vertex="1" parent="2HzZ_DdVNR7TNEQ7cjcN-76">
          <mxGeometry x="60" width="120" height="30" as="geometry" />
        </mxCell>
        <mxCell id="2HzZ_DdVNR7TNEQ7cjcN-90" value="" style="edgeStyle=entityRelationEdgeStyle;fontSize=12;html=1;endArrow=ERoneToMany;exitX=1;exitY=0.5;exitDx=0;exitDy=0;entryX=0;entryY=0.5;entryDx=0;entryDy=0;" edge="1" parent="1" source="2HzZ_DdVNR7TNEQ7cjcN-24" target="2HzZ_DdVNR7TNEQ7cjcN-70">
          <mxGeometry width="100" height="100" relative="1" as="geometry">
            <mxPoint x="240" y="300" as="sourcePoint" />
            <mxPoint x="340" y="200" as="targetPoint" />
          </mxGeometry>
        </mxCell>
        <mxCell id="2HzZ_DdVNR7TNEQ7cjcN-92" value="" style="edgeStyle=entityRelationEdgeStyle;fontSize=12;html=1;endArrow=ERoneToMany;entryX=1;entryY=0.5;entryDx=0;entryDy=0;" edge="1" parent="1" source="2HzZ_DdVNR7TNEQ7cjcN-37" target="2HzZ_DdVNR7TNEQ7cjcN-82">
          <mxGeometry width="100" height="100" relative="1" as="geometry">
            <mxPoint x="430" y="110" as="sourcePoint" />
            <mxPoint x="560" y="190" as="targetPoint" />
          </mxGeometry>
        </mxCell>
      </root>
    </mxGraphModel>
  </diagram>
</mxfile>
